<svg width="182" height="17" viewBox="0 0 182 17" fill="none" xmlns="http://www.w3.org/2000/svg">
<path d="M0 11V0H12.8903C14.6428 0 16.3497 0.558477 17.7633 1.59437C18.6084 2.21371 19.2833 3.0366 19.7252 3.98661L21.2165 7.19231C21.7922 5.78595 22.5143 4.44406 23.3707 3.18876L23.4446 3.08053C23.6905 2.72004 23.9717 2.38484 24.2838 2.07984L24.919 1.4592C25.333 1.05464 25.8242 0.737558 26.3634 0.526835L26.4183 0.505373C27.2728 0.171398 28.1822 0 29.0996 0H42V11H0Z" fill="#F9F9F9"/>
<rect y="13" width="42" height="4" fill="#F9F9F9"/>
<path d="M56.764 14.5H54.082L51.544 10.126H49.654V14.5H47.17V1.9H52.21C53.374 1.9 54.364 2.308 55.18 3.124C55.996 3.94 56.404 4.924 56.404 6.076C56.404 6.856 56.182 7.582 55.738 8.254C55.294 8.914 54.706 9.412 53.974 9.748L56.764 14.5ZM52.21 4.222H49.654V7.948H52.21C52.678 7.948 53.08 7.768 53.416 7.408C53.752 7.036 53.92 6.592 53.92 6.076C53.92 5.56 53.752 5.122 53.416 4.762C53.08 4.402 52.678 4.222 52.21 4.222ZM61.0706 9.298V12.124H66.3806V14.5H58.5866V1.9H66.2906V4.276H61.0706V6.958H65.8406V9.298H61.0706ZM79.4849 14.5H76.7849L76.0289 12.232H71.0069L70.2509 14.5H67.5689L71.9789 1.9H75.0569L79.4849 14.5ZM73.5269 4.762L71.7989 9.91H75.2549L73.5269 4.762ZM81.0684 1.9H86.0724C87.8004 1.9 89.2404 2.506 90.3924 3.718C91.5564 4.918 92.1384 6.412 92.1384 8.2C92.1384 9.988 91.5564 11.482 90.3924 12.682C89.2404 13.894 87.8004 14.5 86.0724 14.5H81.0684V1.9ZM83.5524 12.124H86.0724C87.1644 12.124 88.0524 11.764 88.7364 11.044C89.4204 10.3 89.7624 9.352 89.7624 8.2C89.7624 7.036 89.4204 6.094 88.7364 5.374C88.0524 4.642 87.1644 4.276 86.0724 4.276H83.5524V12.124ZM102.702 14.752C100.722 14.752 99.3364 13.954 98.5444 12.358L100.686 11.134C101.082 11.926 101.754 12.322 102.702 12.322C103.35 12.322 103.836 12.172 104.16 11.872C104.496 11.56 104.664 11.128 104.664 10.576V1.9H107.13V10.576C107.13 11.896 106.716 12.922 105.888 13.654C105.072 14.386 104.01 14.752 102.702 14.752ZM120.33 12.862C119.058 14.122 117.51 14.752 115.686 14.752C113.862 14.752 112.314 14.122 111.042 12.862C109.782 11.578 109.152 10.024 109.152 8.2C109.152 6.364 109.782 4.816 111.042 3.556C112.314 2.284 113.862 1.648 115.686 1.648C117.51 1.648 119.058 2.284 120.33 3.556C121.602 4.816 122.238 6.364 122.238 8.2C122.238 10.036 121.602 11.59 120.33 12.862ZM112.788 11.17C113.556 11.938 114.522 12.322 115.686 12.322C116.85 12.322 117.816 11.938 118.584 11.17C119.364 10.39 119.754 9.4 119.754 8.2C119.754 7 119.364 6.01 118.584 5.23C117.804 4.45 116.838 4.06 115.686 4.06C114.534 4.06 113.568 4.45 112.788 5.23C112.008 6.01 111.618 7 111.618 8.2C111.618 9.4 112.008 10.39 112.788 11.17ZM128.954 14.752C127.55 14.752 126.398 14.356 125.498 13.564C124.598 12.772 124.148 11.71 124.148 10.378V1.9H126.614V10.18C126.614 10.852 126.806 11.38 127.19 11.764C127.586 12.136 128.174 12.322 128.954 12.322C129.734 12.322 130.316 12.136 130.7 11.764C131.096 11.38 131.294 10.852 131.294 10.18V1.9H133.778V10.378C133.778 11.71 133.328 12.772 132.428 13.564C131.528 14.356 130.37 14.752 128.954 14.752ZM145.97 14.5H143.288L140.75 10.126H138.86V14.5H136.376V1.9H141.416C142.58 1.9 143.57 2.308 144.386 3.124C145.202 3.94 145.61 4.924 145.61 6.076C145.61 6.856 145.388 7.582 144.944 8.254C144.5 8.914 143.912 9.412 143.18 9.748L145.97 14.5ZM141.416 4.222H138.86V7.948H141.416C141.884 7.948 142.286 7.768 142.622 7.408C142.958 7.036 143.126 6.592 143.126 6.076C143.126 5.56 142.958 5.122 142.622 4.762C142.286 4.402 141.884 4.222 141.416 4.222ZM155.083 9.586V1.9H157.567V14.5H155.677L150.277 6.796V14.5H147.793V1.9H149.683L155.083 9.586ZM162.748 9.298V12.124H168.058V14.5H160.264V1.9H167.968V4.276H162.748V6.958H167.518V9.298H162.748ZM177.333 1.9H180.141L175.821 9.586V14.5H173.355V9.586L169.053 1.9H171.861L174.597 7.156L177.333 1.9Z" fill="#F9F9F9"/>
</svg>
